<svg width="76" height="19" viewBox="0 0 76 19" fill="none" xmlns="http://www.w3.org/2000/svg">
<path d="M0.0640001 18V1.248H7.264C8.816 1.248 10.016 1.704 10.864 2.616C11.712 3.528 12.136 4.752 12.136 6.288C12.136 7.824 11.712 9.048 10.864 9.96C10.016 10.872 8.816 11.328 7.264 11.328H2.776V18H0.0640001ZM2.776 8.952H7.096C7.784 8.952 8.32 8.776 8.704 8.424C9.088 8.056 9.28 7.536 9.28 6.864V5.712C9.28 5.04 9.088 4.528 8.704 4.176C8.32 3.808 7.784 3.624 7.096 3.624H2.776V8.952ZM19.3461 18.288C18.4501 18.288 17.6501 18.136 16.9461 17.832C16.2421 17.528 15.6421 17.096 15.1461 16.536C14.6501 15.96 14.2661 15.272 13.9941 14.472C13.7381 13.656 13.6101 12.752 13.6101 11.76C13.6101 10.768 13.7381 9.872 13.9941 9.072C14.2661 8.256 14.6501 7.568 15.1461 7.008C15.6421 6.432 16.2421 5.992 16.9461 5.688C17.6501 5.384 18.4501 5.232 19.3461 5.232C20.2581 5.232 21.0581 5.392 21.7461 5.712C22.4501 6.032 23.0341 6.48 23.4981 7.056C23.9621 7.616 24.3061 8.272 24.5301 9.024C24.7701 9.776 24.8901 10.584 24.8901 11.448V12.432H16.3221V12.84C16.3221 13.8 16.6021 14.592 17.1621 15.216C17.7381 15.824 18.5541 16.128 19.6101 16.128C20.3781 16.128 21.0261 15.96 21.5541 15.624C22.0821 15.288 22.5301 14.832 22.8981 14.256L24.4341 15.768C23.9701 16.536 23.2981 17.152 22.4181 17.616C21.5381 18.064 20.5141 18.288 19.3461 18.288ZM19.3461 7.272C18.8981 7.272 18.4821 7.352 18.0981 7.512C17.7301 7.672 17.4101 7.896 17.1381 8.184C16.8821 8.472 16.6821 8.816 16.5381 9.216C16.3941 9.616 16.3221 10.056 16.3221 10.536V10.704H22.1301V10.464C22.1301 9.504 21.8821 8.736 21.3861 8.16C20.8901 7.568 20.2101 7.272 19.3461 7.272ZM31.2421 18C30.3301 18 29.6421 17.768 29.1781 17.304C28.7141 16.824 28.4821 16.152 28.4821 15.288V7.656H26.5381V5.52H27.5941C28.0261 5.52 28.3221 5.424 28.4821 5.232C28.6581 5.04 28.7461 4.728 28.7461 4.296V2.112H31.0981V5.52H33.7141V7.656H31.0981V15.864H33.5221V18H31.2421ZM37.8717 3.288C37.3277 3.288 36.9277 3.16 36.6717 2.904C36.4317 2.648 36.3117 2.32 36.3117 1.92V1.512C36.3117 1.112 36.4317 0.783999 36.6717 0.527999C36.9277 0.271999 37.3277 0.144 37.8717 0.144C38.4157 0.144 38.8077 0.271999 39.0477 0.527999C39.2877 0.783999 39.4077 1.112 39.4077 1.512V1.92C39.4077 2.32 39.2877 2.648 39.0477 2.904C38.8077 3.16 38.4157 3.288 37.8717 3.288ZM36.5517 5.52H39.1677V18H36.5517V5.52ZM42.9033 18V5.52H45.5193V7.584H45.6393C45.9113 6.912 46.3193 6.352 46.8633 5.904C47.4233 5.456 48.1833 5.232 49.1433 5.232C50.4233 5.232 51.4153 5.656 52.1193 6.504C52.8393 7.336 53.1993 8.528 53.1993 10.08V18H50.5833V10.416C50.5833 8.464 49.7993 7.488 48.2313 7.488C47.8953 7.488 47.5593 7.536 47.2233 7.632C46.9033 7.712 46.6153 7.84 46.3593 8.016C46.1033 8.192 45.8953 8.416 45.7353 8.688C45.5913 8.96 45.5193 9.28 45.5193 9.648V18H42.9033ZM57.4731 7.656H55.5771V5.52H57.4731V3.456C57.4731 2.448 57.7371 1.664 58.2651 1.104C58.7931 0.527999 59.5851 0.24 60.6411 0.24H62.7051V2.376H60.0891V5.52H62.7051V7.656H60.0891V18H57.4731V7.656ZM69.7836 18.288C68.9196 18.288 68.1276 18.136 67.4076 17.832C66.7036 17.528 66.1036 17.096 65.6076 16.536C65.1116 15.96 64.7276 15.272 64.4556 14.472C64.1836 13.656 64.0476 12.752 64.0476 11.76C64.0476 10.768 64.1836 9.872 64.4556 9.072C64.7276 8.256 65.1116 7.568 65.6076 7.008C66.1036 6.432 66.7036 5.992 67.4076 5.688C68.1276 5.384 68.9196 5.232 69.7836 5.232C70.6476 5.232 71.4316 5.384 72.1356 5.688C72.8556 5.992 73.4636 6.432 73.9596 7.008C74.4556 7.568 74.8396 8.256 75.1116 9.072C75.3836 9.872 75.5196 10.768 75.5196 11.76C75.5196 12.752 75.3836 13.656 75.1116 14.472C74.8396 15.272 74.4556 15.96 73.9596 16.536C73.4636 17.096 72.8556 17.528 72.1356 17.832C71.4316 18.136 70.6476 18.288 69.7836 18.288ZM69.7836 16.128C70.6796 16.128 71.3996 15.856 71.9436 15.312C72.4876 14.752 72.7596 13.92 72.7596 12.816V10.704C72.7596 9.6 72.4876 8.776 71.9436 8.232C71.3996 7.672 70.6796 7.392 69.7836 7.392C68.8876 7.392 68.1676 7.672 67.6236 8.232C67.0796 8.776 66.8076 9.6 66.8076 10.704V12.816C66.8076 13.92 67.0796 14.752 67.6236 15.312C68.1676 15.856 68.8876 16.128 69.7836 16.128Z" fill="#212529"/>
</svg>
